<?xml version="1.0" encoding="UTF-8"?><svg id="Layer_2" xmlns="http://www.w3.org/2000/svg" xmlns:xlink="http://www.w3.org/1999/xlink" viewBox="0 0 158.44 166.89"><defs><style>.cls-1{fill:#1f63ff;}.cls-2{fill:#fff;}.cls-3{fill:#343535;}.cls-4{fill:#131313;}.cls-5{fill:#2f3030;}.cls-6{filter:url(#drop-shadow-1);}.cls-7{fill:#828384;}.cls-8{clip-path:url(#clippath);}.cls-9{fill:#eceff0;}.cls-10{fill:none;}</style><clipPath id="clippath"><circle class="cls-10" cx="79.22" cy="79.22" r="79.22"/></clipPath><filter id="drop-shadow-1" filterUnits="userSpaceOnUse"><feOffset dx="0" dy="0"/><feGaussianBlur result="blur" stdDeviation="1.44"/><feFlood flood-color="#000" flood-opacity=".2"/><feComposite in2="blur" operator="in"/><feComposite in="SourceGraphic"/></filter></defs><g id="Layer_4"><g><g><circle class="cls-9" cx="79.22" cy="79.22" r="79.22"/><g id="Layer_2-2"><g id="Layer_1-2"><g id="_1421394342400"><g><polygon class="cls-5" points="79.21 29.18 78.55 31.4 78.55 95.67 79.21 96.32 109.04 78.69 79.21 29.18"/><polygon class="cls-7" points="79.21 29.18 49.38 78.69 79.21 96.32 79.21 65.12 79.21 29.18"/><polygon class="cls-5" points="79.21 101.96 78.84 102.41 78.84 125.31 79.21 126.38 109.06 84.35 79.21 101.96"/><polygon class="cls-7" points="79.21 126.38 79.21 101.96 49.38 84.35 79.21 126.38"/><polygon class="cls-4" points="79.21 96.32 109.04 78.69 79.21 65.12 79.21 96.32"/><polygon class="cls-3" points="49.38 78.69 79.21 96.32 79.21 65.12 49.38 78.69"/></g></g></g></g></g><g class="cls-8"><g class="cls-6"><circle class="cls-2" cx="45.22" cy="137.69" r="29.21"/><g><g><path class="cls-1" d="M56.18,148.56h0c-4.1,0-6.6-4.52-4.41-7.99l1.16-1.84c1.32-2.09,1.32-4.75,0-6.84l-1.16-1.84c-2.19-3.47,.31-7.99,4.41-7.99h0c1.28,0,2.32,1.04,2.32,2.32v21.85c0,1.28-1.04,2.32-2.32,2.32Z"/><path class="cls-1" d="M33.63,148.56h0c4.1,0,6.6-4.52,4.41-7.99l-1.16-1.84c-1.32-2.09-1.32-4.75,0-6.84l1.16-1.84c2.19-3.47-.31-7.99-4.41-7.99h0c-1.28,0-2.32,1.04-2.32,2.32v21.85c0,1.28,1.04,2.32,2.32,2.32Z"/></g><circle class="cls-1" cx="45.21" cy="135.32" r="4.19"/></g></g></g></g></g></svg>