<?xml version="1.0" encoding="UTF-8"?><svg id="Layer_2" xmlns="http://www.w3.org/2000/svg" xmlns:xlink="http://www.w3.org/1999/xlink" viewBox="0 0 158.44 158.44"><defs><style>.cls-1{fill:#1f63ff;}.cls-2{fill:#fff;}.cls-3{fill:#2775ca;}.cls-4{filter:url(#drop-shadow-1);}.cls-5{clip-path:url(#clippath);}.cls-6{fill:none;}</style><clipPath id="clippath"><circle class="cls-6" cx="79.22" cy="79.22" r="79.22"/></clipPath><filter id="drop-shadow-1" filterUnits="userSpaceOnUse"><feOffset dx="0" dy="0"/><feGaussianBlur result="blur" stdDeviation="1.44"/><feFlood flood-color="#000" flood-opacity=".2"/><feComposite in2="blur" operator="in"/><feComposite in="SourceGraphic"/></filter></defs><g id="Layer_4"><g><g><path class="cls-3" d="M79.22,158.44c43.9,0,79.22-35.32,79.22-79.22S123.12,0,79.22,0,0,35.32,0,79.22s35.32,79.22,79.22,79.22Z"/><path class="cls-2" d="M101,91.76c0-11.55-6.93-15.51-20.79-17.16-9.9-1.32-11.88-3.96-11.88-8.58s3.3-7.59,9.9-7.59c5.94,0,9.24,1.98,10.89,6.93,.33,.99,1.32,1.65,2.31,1.65h5.28c1.32,0,2.31-.99,2.31-2.31v-.33c-1.32-7.26-7.26-12.87-14.85-13.53v-7.92c0-1.32-.99-2.31-2.64-2.64h-4.95c-1.32,0-2.31,.99-2.64,2.64v7.59c-9.9,1.32-16.17,7.92-16.17,16.17,0,10.89,6.6,15.18,20.46,16.83,9.24,1.65,12.21,3.63,12.21,8.91s-4.62,8.91-10.89,8.91c-8.58,0-11.55-3.63-12.54-8.58-.33-1.32-1.32-1.98-2.31-1.98h-5.61c-1.32,0-2.31,.99-2.31,2.31v.33c1.32,8.25,6.6,14.19,17.49,15.84v7.92c0,1.32,.99,2.31,2.64,2.64h4.95c1.32,0,2.31-.99,2.64-2.64v-7.92c9.9-1.65,16.5-8.58,16.5-17.49h0Z"/><path class="cls-2" d="M62.38,126.42c-25.75-9.24-38.95-37.96-29.38-63.37,4.95-13.86,15.84-24.43,29.38-29.38,1.32-.66,1.98-1.65,1.98-3.3v-4.62c0-1.32-.66-2.31-1.98-2.64-.33,0-.99,0-1.32,.33C29.71,33.34,12.54,66.68,22.44,98.03c5.94,18.48,20.13,32.68,38.62,38.62,1.32,.66,2.64,0,2.97-1.32,.33-.33,.33-.66,.33-1.32v-4.62c0-.99-.99-2.31-1.98-2.97ZM97.37,23.44c-1.32-.66-2.64,0-2.97,1.32-.33,.33-.33,.66-.33,1.32v4.62c0,1.32,.99,2.64,1.98,3.3,25.75,9.24,38.95,37.96,29.38,63.37-4.95,13.86-15.84,24.43-29.38,29.38-1.32,.66-1.98,1.65-1.98,3.3v4.62c0,1.32,.66,2.31,1.98,2.64,.33,0,.99,0,1.32-.33,31.36-9.9,48.52-43.24,38.62-74.6-5.94-18.81-20.47-33.01-38.62-38.95h0Z"/></g><g class="cls-5"><g class="cls-4"><circle class="cls-2" cx="45.22" cy="137.69" r="29.21"/><g><g><path class="cls-1" d="M56.18,148.56h0c-4.1,0-6.6-4.52-4.41-7.99l1.16-1.84c1.32-2.09,1.32-4.75,0-6.84l-1.16-1.84c-2.19-3.47,.31-7.99,4.41-7.99h0c1.28,0,2.32,1.04,2.32,2.32v21.85c0,1.28-1.04,2.32-2.32,2.32Z"/><path class="cls-1" d="M33.63,148.56h0c4.1,0,6.6-4.52,4.41-7.99l-1.16-1.84c-1.32-2.09-1.32-4.75,0-6.84l1.16-1.84c2.19-3.47-.31-7.99-4.41-7.99h0c-1.28,0-2.32,1.04-2.32,2.32v21.85c0,1.28,1.04,2.32,2.32,2.32Z"/></g><circle class="cls-1" cx="45.21" cy="135.32" r="4.19"/></g></g></g></g></g></svg>