<svg width="32" height="32" viewBox="0 0 32 32" fill="none" xmlns="http://www.w3.org/2000/svg">
<path d="M15.7505 -3.50817e-08C7.05116 -1.57054e-08 1.59057e-08 7.14111 3.55293e-08 15.9514C5.51528e-08 24.7617 7.05116 31.9028 15.7505 31.9028C24.4498 31.9028 31.501 24.7617 31.501 15.9514C31.501 7.14111 24.4482 -5.44546e-08 15.7505 -3.50817e-08ZM11.17 17.8552L11.8066 18.8781C13.0104 20.8122 11.638 23.3319 9.38002 23.3319C8.67569 23.3319 8.10372 22.7542 8.10372 22.0393L8.10372 9.86192C8.10372 9.14861 8.67411 8.56934 9.38002 8.56934C11.638 8.56934 13.0104 11.0891 11.8066 13.0232L11.17 14.0461C10.4452 15.2094 10.4452 16.6919 11.17 17.8552ZM15.7505 18.2828C14.4789 18.2828 13.4468 17.2392 13.4468 15.9498C13.4468 14.6604 14.4773 13.6168 15.7505 13.6168C17.0236 13.6168 18.0541 14.6604 18.0541 15.9498C18.0541 17.2392 17.0236 18.2828 15.7505 18.2828ZM23.0601 22.0393C23.0601 22.7526 22.4897 23.3319 21.7838 23.3319C19.5258 23.3319 18.1534 20.8122 19.3572 18.8781L19.9938 17.8552C20.7186 16.6919 20.7186 15.2094 19.9938 14.0461L19.3572 13.0232C18.1534 11.0891 19.5258 8.56934 21.7838 8.56934C22.4881 8.56934 23.0601 9.14701 23.0601 9.86192L23.0601 22.0393Z" fill="#104499"/>
</svg>
