<?xml version="1.0" encoding="UTF-8"?><svg id="Layer_2" xmlns="http://www.w3.org/2000/svg" xmlns:xlink="http://www.w3.org/1999/xlink" viewBox="0 0 158.44 166.89"><defs><style>.cls-1{fill:#1f63ff;}.cls-2{fill:#fff;}.cls-3{filter:url(#drop-shadow-1);}.cls-4{fill:#f7931a;}.cls-5{clip-path:url(#clippath);}.cls-6{fill:none;}</style><clipPath id="clippath"><circle class="cls-6" cx="79.22" cy="79.22" r="79.22"/></clipPath><filter id="drop-shadow-1" filterUnits="userSpaceOnUse"><feOffset dx="0" dy="0"/><feGaussianBlur result="blur" stdDeviation="1.44"/><feFlood flood-color="#000" flood-opacity=".2"/><feComposite in2="blur" operator="in"/><feComposite in="SourceGraphic"/></filter></defs><g id="Layer_4"><g><circle class="cls-4" cx="79.22" cy="79.22" r="79.22"/><path class="cls-2" d="M112.66,60.04c-1.04-10.61-10.2-14.15-21.77-15.14l-.03-14.72-8.96,.02,.03,14.33c-2.36,0-4.76,.06-7.15,.11l-.02-14.43-8.95,.02,.02,14.71c-1.94,.04-3.84,.08-5.7,.09v-.05s-12.36,.02-12.36,.02l.02,9.57s6.62-.14,6.51-.02c3.63,0,4.81,2.1,5.16,3.92l.03,16.77c.25,0,.58,.01,.95,.06-.3,0-.62,0-.95,0l.04,23.49c-.16,1.14-.82,2.96-3.36,2.97,.12,.1-6.51,.01-6.51,.01l-1.76,10.7,11.66-.02c2.17,0,4.3,.03,6.4,.04l.03,14.89,8.95-.02-.03-14.73c2.46,.05,4.83,.06,7.16,.06l.02,14.66,8.96-.02-.02-14.86c15.06-.89,25.59-4.7,26.88-18.85,1.04-11.39-4.33-16.46-12.88-18.5,5.19-2.65,8.43-7.32,7.65-15.08h0s0,0,0,0Zm-12.48,31.85c.02,11.12-19.02,9.89-25.1,9.91l-.03-19.72c6.07,0,25.11-1.79,25.13,9.81h0Zm-4.22-27.82c.02,10.12-15.87,8.97-20.93,8.98l-.03-17.89c5.06,0,20.94-1.65,20.96,8.91h0Z"/><g class="cls-5"><g class="cls-3"><circle class="cls-2" cx="45.22" cy="137.69" r="29.21"/><g><g><path class="cls-1" d="M56.18,148.56h0c-4.1,0-6.6-4.52-4.41-7.99l1.16-1.84c1.32-2.09,1.32-4.75,0-6.84l-1.16-1.84c-2.19-3.47,.31-7.99,4.41-7.99h0c1.28,0,2.32,1.04,2.32,2.32v21.85c0,1.28-1.04,2.32-2.32,2.32Z"/><path class="cls-1" d="M33.63,148.56h0c4.1,0,6.6-4.52,4.41-7.99l-1.16-1.84c-1.32-2.09-1.32-4.75,0-6.84l1.16-1.84c2.19-3.47-.31-7.99-4.41-7.99h0c-1.28,0-2.32,1.04-2.32,2.32v21.85c0,1.28,1.04,2.32,2.32,2.32Z"/></g><circle class="cls-1" cx="45.21" cy="135.32" r="4.19"/></g></g></g></g></g></svg>